<svg id="Layer_1" data-name="Layer 1" xmlns="http://www.w3.org/2000/svg" viewBox="0 0 191.96 172.29"><defs><style>.cls-1{fill:#333;}</style></defs><title>Opensea</title><path class="cls-1" d="M111.63,128.54v16.65c12.81,1.94,24.12.5,32.6-10.28,1-1.23,2.12-2.76,3.48-3.17,15.72-4.75,31.51-9.31,47.5-14,2,7.49,1.32,11.84-5.8,15.69a49.12,49.12,0,0,0-17.22,15.79c-20.55,31.67-20.45,32-57.68,32-20.29,0-40.58.3-60.86-.09C24.59,180.53,1.72,155,4.44,125.51c14.45,0,29-.1,43.61.19,1.24,0,3.16,2.47,3.52,4.08,2.61,11.58,7.38,15.77,19.12,16,5.86.11,11.72,0,18.32,0V129.15H66.23c6-9.93,11.52-18.24,16.08-27.08,8-15.49,9.43-30.88-.43-46.74-6.08-9.78-10.21-20.78-16-32.8L90.65,28c.28-4.07.31-7.16.75-10.2.79-5.46,4.51-9.81,9.47-8.61,3.53.86,8.75,6.46,8.44,9.43-1.22,11.44,4.77,17.25,12.49,24.22,9.3,8.39,17.19,18.74,24.06,29.31,6.09,9.36,6.28,20-.31,30.08a65.74,65.74,0,0,0-4.21,8.59C135.63,123.07,127.74,131.93,111.63,128.54Z" transform="translate(-4.22 -9)"/><path class="cls-1" d="M59.36,39.74c8.52,22.34,17.92,42,4.23,63.58-2.43,3.82-4.29,5.92-9.05,5.8C41.78,108.8,29,109,14.77,109Z" transform="translate(-4.22 -9)"/></svg>